PontanoSans-Regular-GLYPHS.ufo
<glyph name="dollar" format="1">
  <advance width="1216"/>
  <unicode hex="0024"/>
  <outline>
    <contour>
      <point x="601" y="1672" type="line"/>
      <point x="690" y="1672" type="line"/>
      <point x="690" y="-204" type="line"/>
      <point x="601" y="-204" type="line"/>
    </contour>
    <component base="S"/>
  </outline>
</glyph>
<glyph name="parenright" format="1">
  <advance width="602"/>
  <unicode hex="0029"/>
  <outline>
    <contour>
      <point x="552" y="703" type="curve" smooth="yes"/>
      <point x="552" y="1242"/>
      <point x="354" y="1518"/>
      <point x="63" y="1587" type="curve"/>
      <point x="34" y="1502" type="line"/>
      <point x="304" y="1426"/>
      <point x="402" y="1117"/>
      <point x="402" y="703" type="curve" smooth="yes"/>
      <point x="402" y="289"/>
      <point x="304" y="-20"/>
      <point x="34" y="-96" type="curve"/>
      <point x="63" y="-181" type="line"/>
      <point x="354" y="-112"/>
      <point x="552" y="164"/>
    </contour>
  </outline>
</glyph>
<glyph name="period" format="1">
  <advance width="434"/>
  <unicode hex="002E"/>
  <outline>
    <contour>
      <point x="135" y="215" type="line"/>
      <point x="299" y="215" type="line"/>
      <point x="299" y="0" type="line"/>
      <point x="135" y="0" type="line"/>
    </contour>
  </outline>
</glyph>
<glyph name="three" format="1">
  <advance width="1092"/>
  <unicode hex="0033"/>
  <outline>
    <contour>
      <point x="926" y="1152" type="curve" smooth="yes"/>
      <point x="926" y="1350.83"/>
      <point x="781" y="1491"/>
      <point x="535" y="1491" type="curve" smooth="yes"/>
      <point x="365" y="1491"/>
      <point x="223" y="1411.68"/>
      <point x="123" y="1256" type="curve"/>
      <point x="229" y="1192" type="line"/>
      <point x="320" y="1332.59"/>
      <point x="430" y="1374"/>
      <point x="542" y="1374" type="curve" smooth="yes"/>
      <point x="708" y="1374"/>
      <point x="783" y="1257.49"/>
      <point x="783" y="1140" type="curve" smooth="yes"/>
      <point x="783" y="1006"/>
      <point x="715" y="864"/>
      <point x="441" y="864" type="curve"/>
      <point x="441" y="751" type="line"/>
      <point x="695" y="751"/>
      <point x="851" y="655"/>
      <point x="848" y="396" type="curve" smooth="yes"/>
      <point x="846" y="239"/>
      <point x="745" y="93"/>
      <point x="533" y="93" type="curve" smooth="yes"/>
      <point x="377" y="93"/>
      <point x="268" y="184.345"/>
      <point x="213" y="358" type="curve"/>
      <point x="89" y="316" type="line"/>
      <point x="150" y="68.2735"/>
      <point x="351" y="-26"/>
      <point x="545" y="-25" type="curve" smooth="yes"/>
      <point x="844" y="-24"/>
      <point x="993" y="190"/>
      <point x="997" y="403" type="curve" smooth="yes"/>
      <point x="1000" y="581"/>
      <point x="906" y="766"/>
      <point x="667" y="815" type="curve"/>
      <point x="852" y="863"/>
      <point x="926" y="1012"/>
    </contour>
  </outline>
</glyph>
<glyph name="five" format="1">
  <advance width="1163"/>
  <unicode hex="0035"/>
  <outline>
    <contour>
      <point x="608" y="928" type="curve" smooth="yes"/>
      <point x="930" y="928"/>
      <point x="1072" y="703"/>
      <point x="1072" y="461" type="curve" smooth="yes"/>
      <point x="1072" y="181.273"/>
      <point x="892" y="-24"/>
      <point x="583" y="-24" type="curve" smooth="yes"/>
      <point x="366" y="-24"/>
      <point x="190" y="75.9063"/>
      <point x="99" y="309" type="curve"/>
      <point x="223" y="359" type="line"/>
      <point x="296" y="192"/>
      <point x="428" y="93"/>
      <point x="575" y="93" type="curve" smooth="yes"/>
      <point x="803" y="93"/>
      <point x="923" y="264"/>
      <point x="923" y="453" type="curve" smooth="yes"/>
      <point x="923" y="634"/>
      <point x="817" y="808"/>
      <point x="602" y="808" type="curve" smooth="yes"/>
      <point x="485" y="808"/>
      <point x="374" y="768"/>
      <point x="278" y="685" type="curve"/>
      <point x="185" y="744" type="line"/>
      <point x="281" y="1464" type="line"/>
      <point x="982" y="1464" type="line"/>
      <point x="982" y="1337" type="line"/>
      <point x="412" y="1337" type="line"/>
      <point x="338" y="821" type="line"/>
      <point x="298" y="823" type="line"/>
      <point x="395" y="903"/>
      <point x="528" y="928"/>
    </contour>
  </outline>
</glyph>
<glyph name="six" format="1">
  <advance width="1202"/>
  <unicode hex="0036"/>
  <outline>
    <contour>
      <point x="283" y="820" type="curve"/>
      <point x="380" y="897"/>
      <point x="509" y="941"/>
      <point x="622" y="946" type="curve" smooth="yes"/>
      <point x="892" y="957"/>
      <point x="1083" y="789"/>
      <point x="1083" y="484" type="curve" smooth="yes"/>
      <point x="1083" y="233.508"/>
      <point x="925" y="-25"/>
      <point x="623" y="-25" type="curve" smooth="yes"/>
      <point x="280" y="-25"/>
      <point x="124" y="252.383"/>
      <point x="124" y="700" type="curve" smooth="yes"/>
      <point x="124" y="1201"/>
      <point x="339" y="1491"/>
      <point x="641" y="1491" type="curve" smooth="yes"/>
      <point x="739" y="1491"/>
      <point x="867" y="1460"/>
      <point x="963" y="1396" type="curve"/>
      <point x="922" y="1285" type="line"/>
      <point x="835" y="1346"/>
      <point x="736" y="1376"/>
      <point x="644" y="1374" type="curve" smooth="yes"/>
      <point x="435" y="1369"/>
      <point x="296" y="1177"/>
    </contour>
    <contour>
      <point x="283" y="701" type="curve"/>
      <point x="283" y="659" type="line" smooth="yes"/>
      <point x="283" y="369"/>
      <point x="346" y="93"/>
      <point x="623" y="93" type="curve" smooth="yes"/>
      <point x="811" y="93"/>
      <point x="932" y="237"/>
      <point x="932" y="480" type="curve" smooth="yes"/>
      <point x="932" y="722"/>
      <point x="834" y="842"/>
      <point x="609" y="834" type="curve" smooth="yes"/>
      <point x="497" y="830"/>
      <point x="382" y="779"/>
    </contour>
  </outline>
</glyph>
<glyph name="question" format="1">
  <advance width="1010"/>
  <unicode hex="003F"/>
  <outline>
    <contour>
      <point x="795" y="1089" type="curve" smooth="yes"/>
      <point x="795" y="828"/>
      <point x="620" y="791"/>
      <point x="363" y="358" type="curve"/>
      <point x="491" y="357" type="line"/>
      <point x="749" y="754"/>
      <point x="941" y="805"/>
      <point x="941" y="1094" type="curve" smooth="yes"/>
      <point x="941" y="1286"/>
      <point x="816" y="1491"/>
      <point x="497" y="1491" type="curve" smooth="yes"/>
      <point x="335" y="1491"/>
      <point x="154" y="1439"/>
      <point x="35" y="1250" type="curve"/>
      <point x="134" y="1177" type="line"/>
      <point x="164" y="1222.61"/>
      <point x="269" y="1374"/>
      <point x="488" y="1374" type="curve" smooth="yes"/>
      <point x="723" y="1374"/>
      <point x="795" y="1227"/>
    </contour>
    <contour>
      <point x="350" y="0" type="line"/>
      <point x="514" y="0" type="line"/>
      <point x="514" y="215" type="line"/>
      <point x="350" y="215" type="line"/>
    </contour>
  </outline>
</glyph>
<glyph name="C" format="1">
  <advance width="1376"/>
  <unicode hex="0043"/>
  <outline>
    <contour>
      <point x="110" y="736" type="curve" smooth="yes"/>
      <point x="110" y="205"/>
      <point x="351" y="-24"/>
      <point x="734" y="-24" type="curve" smooth="yes"/>
      <point x="992" y="-24"/>
      <point x="1193" y="102"/>
      <point x="1265" y="365" type="curve"/>
      <point x="1131" y="396" type="line"/>
      <point x="1085" y="219"/>
      <point x="960" y="93"/>
      <point x="729" y="93" type="curve" smooth="yes"/>
      <point x="384" y="93"/>
      <point x="263" y="339"/>
      <point x="263" y="736" type="curve" smooth="yes"/>
      <point x="263" y="1133"/>
      <point x="384" y="1374"/>
      <point x="729" y="1374" type="curve" smooth="yes"/>
      <point x="960" y="1374"/>
      <point x="1085" y="1248"/>
      <point x="1131" y="1071" type="curve"/>
      <point x="1265" y="1102" type="line"/>
      <point x="1193" y="1365"/>
      <point x="992" y="1491"/>
      <point x="734" y="1491" type="curve" smooth="yes"/>
      <point x="351" y="1491"/>
      <point x="110" y="1267"/>
    </contour>
  </outline>
</glyph>
<glyph name="D" format="1">
  <advance width="1397"/>
  <unicode hex="0044"/>
  <outline>
    <contour>
      <point x="223" y="1464" type="line"/>
      <point x="652" y="1464" type="line" smooth="yes"/>
      <point x="1064" y="1464"/>
      <point x="1287" y="1280"/>
      <point x="1287" y="738" type="curve" smooth="yes"/>
      <point x="1287" y="203"/>
      <point x="1083" y="0"/>
      <point x="645" y="0" type="curve" smooth="yes"/>
      <point x="223" y="0" type="line"/>
      <point x="223" y="112" type="line"/>
      <point x="597" y="112" type="line" smooth="yes"/>
      <point x="1008" y="112"/>
      <point x="1140" y="288"/>
      <point x="1140" y="737" type="curve" smooth="yes"/>
      <point x="1140" y="1131"/>
      <point x="1037" y="1352"/>
      <point x="653" y="1352" type="curve" smooth="yes"/>
      <point x="223" y="1352" type="line"/>
    </contour>
    <component base="uc_main_stem"/>
  </outline>
</glyph>
<glyph name="E" format="1">
  <advance width="1202"/>
  <unicode hex="0045"/>
  <outline>
    <contour>
      <point x="224" y="1464" type="line"/>
      <point x="1117" y="1464" type="line"/>
      <point x="1117" y="1352" type="line"/>
      <point x="225" y="1352" type="line"/>
    </contour>
    <contour>
      <point x="225" y="838" type="line"/>
      <point x="1010" y="838" type="line"/>
      <point x="1010" y="723" type="line"/>
      <point x="225" y="723" type="line"/>
    </contour>
    <contour>
      <point x="1128" y="0" type="line"/>
      <point x="224" y="0" type="line"/>
      <point x="225" y="112" type="line"/>
      <point x="1128" y="112" type="line"/>
    </contour>
    <component base="uc_main_stem"/>
  </outline>
</glyph>
<glyph name="F" format="1">
  <advance width="1178"/>
  <unicode hex="0046"/>
  <outline>
    <contour>
      <point x="1117" y="1352" type="line"/>
      <point x="219" y="1352" type="line"/>
      <point x="219" y="1464" type="line"/>
      <point x="1117" y="1464" type="line"/>
    </contour>
    <contour>
      <point x="219" y="830" type="line"/>
      <point x="1009" y="830" type="line"/>
      <point x="1009" y="716" type="line"/>
      <point x="219" y="716" type="line"/>
    </contour>
    <component base="uc_main_stem"/>
  </outline>
</glyph>
<glyph name="H" format="1">
  <advance width="1457"/>
  <unicode hex="0048"/>
  <outline>
    <contour>
      <point x="1235" y="836" type="line"/>
      <point x="1235" y="720" type="line"/>
      <point x="228" y="720" type="line"/>
      <point x="228" y="836" type="line"/>
    </contour>
    <component base="uc_main_stem"/>
    <component base="uc_main_stem" xOffset="1016"/>
  </outline>
</glyph>
<glyph name="K" format="1">
  <advance width="1252"/>
  <unicode hex="004B"/>
  <outline>
    <contour>
      <point x="615" y="969" type="line"/>
      <point x="1244" y="0" type="line"/>
      <point x="1077" y="0" type="line"/>
      <point x="515" y="867" type="line"/>
    </contour>
    <contour>
      <point x="1180" y="1464" type="line"/>
      <point x="229" y="483" type="line"/>
      <point x="229" y="656" type="line"/>
      <point x="1003" y="1464" type="line"/>
    </contour>
    <component base="uc_main_stem"/>
  </outline>
</glyph>
<glyph name="M" format="1">
  <advance width="1645"/>
  <unicode hex="004D"/>
  <outline>
    <contour>
      <point x="148" y="0" type="line"/>
      <point x="148" y="1464" type="line"/>
      <point x="359" y="1464" type="line"/>
      <point x="826" y="405" type="line"/>
      <point x="1306" y="1464" type="line"/>
      <point x="1497" y="1464" type="line"/>
      <point x="1497" y="0" type="line"/>
      <point x="1363" y="0" type="line"/>
      <point x="1363" y="1277" type="line"/>
      <point x="888" y="250" type="line"/>
      <point x="753" y="250" type="line"/>
      <point x="287" y="1282" type="line"/>
      <point x="287" y="0" type="line"/>
    </contour>
  </outline>
</glyph>
<glyph name="Q" format="1">
  <advance width="1434"/>
  <unicode hex="0051"/>
  <outline>
    <contour>
      <point x="1266" y="-345" type="line"/>
      <point x="976" y="77" type="line"/>
      <point x="1076" y="141" type="line"/>
      <point x="1374" y="-263" type="line"/>
    </contour>
    <component base="O"/>
  </outline>
</glyph>
<glyph name="S" format="1">
  <advance width="1216"/>
  <unicode hex="0053"/>
  <outline>
    <contour>
      <point x="618" y="1491" type="curve" smooth="yes"/>
      <point x="850" y="1491"/>
      <point x="1009" y="1420"/>
      <point x="1127" y="1240" type="curve"/>
      <point x="1019" y="1160" type="line"/>
      <point x="939" y="1302.67"/>
      <point x="797" y="1374"/>
      <point x="639" y="1374" type="curve" smooth="yes"/>
      <point x="446" y="1374"/>
      <point x="284" y="1307.72"/>
      <point x="284" y="1137" type="curve" smooth="yes"/>
      <point x="284" y="934.07"/>
      <point x="492" y="901"/>
      <point x="713" y="829" type="curve" smooth="yes"/>
      <point x="1001" y="735"/>
      <point x="1158" y="646"/>
      <point x="1158" y="393" type="curve" smooth="yes"/>
      <point x="1158" y="126"/>
      <point x="941" y="-25"/>
      <point x="615" y="-25" type="curve" smooth="yes"/>
      <point x="390" y="-25"/>
      <point x="101" y="69"/>
      <point x="45" y="373" type="curve"/>
      <point x="168" y="426" type="line"/>
      <point x="228.789" y="199.56"/>
      <point x="379.75" y="93"/>
      <point x="630" y="93" type="curve" smooth="yes"/>
      <point x="806.181" y="93"/>
      <point x="1005" y="160.84"/>
      <point x="1005" y="388" type="curve" smooth="yes"/>
      <point x="1005" y="584"/>
      <point x="882" y="631"/>
      <point x="565" y="731" type="curve" smooth="yes"/>
      <point x="328" y="806"/>
      <point x="131" y="880.413"/>
      <point x="131" y="1125" type="curve" smooth="yes"/>
      <point x="131" y="1378"/>
      <point x="372" y="1491"/>
    </contour>
  </outline>
</glyph>
<glyph name="T" format="1">
  <advance width="1119"/>
  <unicode hex="0054"/>
  <outline>
    <contour>
      <point x="9" y="1352" type="line"/>
      <point x="9" y="1464" type="line"/>
      <point x="1110" y="1464" type="line"/>
      <point x="1110" y="1352" type="line"/>
    </contour>
    <component base="uc_main_stem" xOffset="345"/>
  </outline>
</glyph>
<glyph name="W" format="1">
  <advance width="1797"/>
  <unicode hex="0057"/>
  <outline>
    <contour>
      <point x="429" y="0" type="line"/>
      <point x="12" y="1464" type="line"/>
      <point x="164" y="1464" type="line"/>
      <point x="490" y="234" type="line"/>
      <point x="865" y="1464" type="line"/>
      <point x="969" y="1464" type="line"/>
      <point x="1316" y="217" type="line"/>
      <point x="1646" y="1464" type="line"/>
      <point x="1785" y="1464" type="line"/>
      <point x="1370" y="0" type="line"/>
      <point x="1244" y="0" type="line"/>
      <point x="907" y="1187" type="line"/>
      <point x="540" y="0" type="line"/>
    </contour>
  </outline>
</glyph>
<glyph name="X" format="1">
  <advance width="1245"/>
  <unicode hex="0058"/>
  <outline>
    <contour>
      <point x="1239" y="0" type="line"/>
      <point x="1066" y="0" type="line"/>
      <point x="51" y="1464" type="line"/>
      <point x="226" y="1464" type="line"/>
    </contour>
    <contour>
      <point x="625" y="886" type="line"/>
      <point x="1029" y="1464" type="line"/>
      <point x="1195" y="1464" type="line"/>
      <point x="706" y="767" type="line"/>
      <point x="621" y="644" type="line"/>
      <point x="173" y="0" type="line"/>
      <point x="6" y="0" type="line"/>
      <point x="540" y="763" type="line"/>
    </contour>
  </outline>
</glyph>
<glyph name="Y" format="1">
  <advance width="1162"/>
  <unicode hex="0059"/>
  <outline>
    <contour>
      <point x="509" y="549" type="line"/>
      <point x="-3" y="1464" type="line"/>
      <point x="154" y="1464" type="line"/>
      <point x="583" y="681" type="line"/>
      <point x="1009" y="1464" type="line"/>
      <point x="1165" y="1464" type="line"/>
      <point x="654" y="548" type="line"/>
      <point x="654" y="0" type="line"/>
      <point x="509" y="0" type="line"/>
    </contour>
  </outline>
</glyph>
<glyph name="b" format="1">
  <advance width="1079"/>
  <unicode hex="0062"/>
  <outline>
    <contour>
      <point x="577" y="-24" type="curve" smooth="yes"/>
      <point x="840" y="-24"/>
      <point x="987" y="190"/>
      <point x="987" y="502" type="curve" smooth="yes"/>
      <point x="987" y="849"/>
      <point x="829" y="1044"/>
      <point x="584" y="1044" type="curve" smooth="yes"/>
      <point x="366" y="1044"/>
      <point x="225" y="884"/>
      <point x="201" y="630" type="curve"/>
      <point x="201" y="361" type="line"/>
      <point x="223" y="142"/>
      <point x="329" y="-24"/>
    </contour>
    <contour>
      <point x="572" y="77" type="curve" smooth="yes"/>
      <point x="351" y="77"/>
      <point x="265" y="205"/>
      <point x="265" y="520" type="curve" smooth="yes"/>
      <point x="265" y="811"/>
      <point x="387" y="943"/>
      <point x="573" y="943" type="curve" smooth="yes"/>
      <point x="746" y="943"/>
      <point x="843" y="792"/>
      <point x="843" y="514" type="curve" smooth="yes"/>
      <point x="843" y="229"/>
      <point x="747" y="77"/>
    </contour>
    <component base="lc_ascender_stem_2" yOffset="-1"/>
  </outline>
</glyph>
<glyph name="d" format="1">
  <advance width="1077"/>
  <unicode hex="0064"/>
  <outline>
    <contour>
      <point x="502" y="-24" type="curve" smooth="yes"/>
      <point x="760" y="-24"/>
      <point x="857" y="164"/>
      <point x="881" y="377" type="curve"/>
      <point x="881" y="630" type="line"/>
      <point x="857" y="884"/>
      <point x="720" y="1044"/>
      <point x="502" y="1044" type="curve" smooth="yes"/>
      <point x="254" y="1044"/>
      <point x="92" y="856"/>
      <point x="92" y="502" type="curve" smooth="yes"/>
      <point x="92" y="190"/>
      <point x="239" y="-24"/>
    </contour>
    <contour>
      <point x="507" y="78" type="curve" smooth="yes"/>
      <point x="332" y="87"/>
      <point x="236" y="229"/>
      <point x="236" y="514" type="curve" smooth="yes"/>
      <point x="236" y="791"/>
      <point x="333" y="942"/>
      <point x="510" y="942" type="curve" smooth="yes"/>
      <point x="696" y="942"/>
      <point x="814" y="811"/>
      <point x="814" y="520" type="curve" smooth="yes"/>
      <point x="814" y="205"/>
      <point x="702" y="68"/>
    </contour>
    <component base="lc_ascender_stem_3" xOffset="-28"/>
  </outline>
</glyph>
<glyph name="g" format="1">
  <advance width="1074"/>
  <unicode hex="0067"/>
  <outline>
    <contour>
      <point x="524" y="-429" type="curve" smooth="yes"/>
      <point x="806" y="-426"/>
      <point x="955" y="-247"/>
      <point x="955" y="40" type="curve" smooth="yes"/>
      <point x="955" y="1023" type="line"/>
      <point x="833" y="1023" type="line"/>
      <point x="814" y="761" type="line"/>
      <point x="814" y="36" type="line" smooth="yes"/>
      <point x="814" y="-186"/>
      <point x="725" y="-322"/>
      <point x="523" y="-322" type="curve" smooth="yes"/>
      <point x="376" y="-322"/>
      <point x="292" y="-276"/>
      <point x="221" y="-189" type="curve"/>
      <point x="145" y="-268" type="line"/>
      <point x="211" y="-352"/>
      <point x="339" y="-431"/>
    </contour>
    <contour>
      <point x="500" y="-24" type="curve" smooth="yes"/>
      <point x="747" y="-24"/>
      <point x="853" y="146"/>
      <point x="878" y="361" type="curve"/>
      <point x="878" y="630" type="line"/>
      <point x="854" y="883"/>
      <point x="715" y="1044"/>
      <point x="497" y="1044" type="curve" smooth="yes"/>
      <point x="249" y="1044"/>
      <point x="72" y="857"/>
      <point x="72" y="503" type="curve" smooth="yes"/>
      <point x="72" y="190"/>
      <point x="236" y="-24"/>
    </contour>
    <contour>
      <point x="506" y="77" type="curve" smooth="yes"/>
      <point x="330" y="77"/>
      <point x="215" y="228"/>
      <point x="216" y="514" type="curve" smooth="yes"/>
      <point x="217" y="787"/>
      <point x="330" y="943"/>
      <point x="505" y="943" type="curve" smooth="yes"/>
      <point x="692" y="943"/>
      <point x="814" y="816"/>
      <point x="814" y="520" type="curve" smooth="yes"/>
      <point x="814" y="205"/>
      <point x="727" y="77"/>
    </contour>
  </outline>
</glyph>
<glyph name="k" format="1">
  <advance width="1005"/>
  <unicode hex="006B"/>
  <outline>
    <contour>
      <point x="206" y="303" type="line"/>
      <point x="962" y="1023" type="line"/>
      <point x="800" y="1023" type="line"/>
      <point x="206" y="455" type="line"/>
    </contour>
    <contour>
      <point x="855" y="0" type="line"/>
      <point x="1015" y="0" type="line"/>
      <point x="541" y="698" type="line"/>
      <point x="448" y="612" type="line"/>
    </contour>
    <component base="lc_ascender_stem"/>
  </outline>
</glyph>
<glyph name="r" format="1">
  <advance width="626"/>
  <unicode hex="0072"/>
  <outline>
    <contour>
      <point x="269" y="532" type="line"/>
      <point x="269" y="717"/>
      <point x="349" y="903"/>
      <point x="578" y="903" type="curve"/>
      <point x="578" y="1029" type="line"/>
      <point x="390" y="1029"/>
      <point x="259" y="911"/>
      <point x="211" y="644" type="curve"/>
    </contour>
    <component base="lc_main_stem"/>
  </outline>
</glyph>
<glyph name="t" format="1">
  <advance width="656"/>
  <unicode hex="0074"/>
  <outline>
    <contour>
      <point x="597" y="120" type="curve"/>
      <point x="621" y="29" type="line"/>
      <point x="586" y="7"/>
      <point x="517" y="-16"/>
      <point x="451" y="-16" type="curve" smooth="yes"/>
      <point x="275" y="-16"/>
      <point x="194" y="79"/>
      <point x="194" y="325" type="curve" smooth="yes"/>
      <point x="194" y="926" type="line"/>
      <point x="41" y="926" type="line"/>
      <point x="41" y="1023" type="line"/>
      <point x="194" y="1023" type="line"/>
      <point x="200" y="1350" type="line"/>
      <point x="336" y="1387" type="line"/>
      <point x="336" y="1023" type="line"/>
      <point x="560" y="1023" type="line"/>
      <point x="560" y="926" type="line"/>
      <point x="336" y="926" type="line"/>
      <point x="336" y="267" type="line" smooth="yes"/>
      <point x="336" y="138"/>
      <point x="381" y="91"/>
      <point x="465" y="90" type="curve" smooth="yes"/>
      <point x="511" y="89"/>
      <point x="556" y="102"/>
    </contour>
  </outline>
</glyph>
<glyph name="x" format="1">
  <advance width="966"/>
  <unicode hex="0078"/>
  <outline>
    <contour>
      <point x="413" y="526" type="line"/>
      <point x="479" y="606" type="line"/>
      <point x="773" y="1023" type="line"/>
      <point x="926" y="1023" type="line"/>
      <point x="554" y="510" type="line"/>
      <point x="484" y="421" type="line"/>
      <point x="184" y="0" type="line"/>
      <point x="31" y="0" type="line"/>
    </contour>
    <contour>
      <point x="32" y="1023" type="line"/>
      <point x="188" y="1023" type="line"/>
      <point x="938" y="0" type="line"/>
      <point x="782" y="0" type="line"/>
    </contour>
  </outline>
</glyph>
<glyph name="cent" format="1">
  <advance width="982"/>
  <unicode hex="00A2"/>
  <outline>
    <contour>
      <point x="484" y="-208" type="line"/>
      <point x="577" y="-208" type="line"/>
      <point x="577" y="1253" type="line"/>
      <point x="484" y="1253" type="line"/>
    </contour>
    <component base="c"/>
  </outline>
</glyph>
<glyph name="yen" format="1">
  <advance width="1162"/>
  <unicode hex="00A5"/>
  <outline>
    <contour>
      <point x="256" y="544" type="line"/>
      <point x="256" y="630" type="line"/>
      <point x="910" y="630" type="line"/>
      <point x="910" y="544" type="line"/>
    </contour>
    <contour>
      <point x="910" y="420" type="line"/>
      <point x="910" y="334" type="line"/>
      <point x="256" y="334" type="line"/>
      <point x="256" y="420" type="line"/>
    </contour>
    <component base="Y"/>
  </outline>
</glyph>
<glyph name="brokenbar" format="1">
  <advance width="416"/>
  <unicode hex="00A6"/>
  <outline>
    <contour>
      <point x="135" y="-198" type="line"/>
      <point x="135" y="463" type="line"/>
      <point x="281" y="463" type="line"/>
      <point x="281" y="-198" type="line"/>
    </contour>
    <contour>
      <point x="281" y="853" type="line"/>
      <point x="135" y="853" type="line"/>
      <point x="135" y="1504" type="line"/>
      <point x="281" y="1504" type="line"/>
    </contour>
  </outline>
</glyph>
<glyph name="section" format="1">
  <advance width="1005"/>
  <unicode hex="00A7"/>
  <outline>
    <contour>
      <point x="531" y="-25" type="curve" smooth="yes"/>
      <point x="751" y="-25"/>
      <point x="883" y="68"/>
      <point x="900" y="253" type="curve" smooth="yes"/>
      <point x="909" y="350"/>
      <point x="850" y="432"/>
      <point x="775" y="482" type="curve"/>
      <point x="850" y="565"/>
      <point x="873" y="647"/>
      <point x="873" y="714" type="curve" smooth="yes"/>
      <point x="873" y="1022"/>
      <point x="310" y="985"/>
      <point x="303" y="1198" type="curve" smooth="yes"/>
      <point x="299" y="1314"/>
      <point x="374" y="1378"/>
      <point x="527" y="1378" type="curve" smooth="yes"/>
      <point x="659" y="1378"/>
      <point x="731" y="1340.17"/>
      <point x="793" y="1229" type="curve"/>
      <point x="793" y="1230"/>
      <point x="884" y="1286"/>
      <point x="884" y="1286" type="curve"/>
      <point x="810" y="1437.7"/>
      <point x="704" y="1491"/>
      <point x="527" y="1491" type="curve" smooth="yes"/>
      <point x="308" y="1491"/>
      <point x="164" y="1391"/>
      <point x="164" y="1210" type="curve" smooth="yes"/>
      <point x="164" y="1092"/>
      <point x="239" y="1027"/>
      <point x="307" y="986" type="curve"/>
      <point x="212" y="898"/>
      <point x="176" y="823"/>
      <point x="174" y="755" type="curve" smooth="yes"/>
      <point x="166" y="437"/>
      <point x="812" y="499"/>
      <point x="774" y="251" type="curve" smooth="yes"/>
      <point x="758" y="144"/>
      <point x="681" y="93"/>
      <point x="536" y="93" type="curve" smooth="yes"/>
      <point x="374" y="93"/>
      <point x="273" y="162.478"/>
      <point x="229" y="310" type="curve"/>
      <point x="127" y="273" type="line"/>
      <point x="165" y="49"/>
      <point x="366" y="-25"/>
    </contour>
    <contour>
      <point x="677" y="532" type="curve"/>
      <point x="425" y="652"/>
      <point x="155" y="655"/>
      <point x="391" y="939" type="curve"/>
      <point x="686.514" y="825.234"/>
      <point x="838.163" y="807.767"/>
    </contour>
  </outline>
</glyph>
<glyph name="macron" format="1">
  <advance width="724"/>
  <unicode hex="00AF"/>
  <outline>
    <contour>
      <point x="135" y="1209" type="line"/>
      <point x="135" y="1309" type="line"/>
      <point x="589" y="1309" type="line"/>
      <point x="589" y="1209" type="line"/>
    </contour>
  </outline>
</glyph>
<glyph name="plusminus" format="1">
  <advance width="860"/>
  <unicode hex="00B1"/>
  <outline>
    <contour>
      <point x="129" y="247" type="line"/>
      <point x="129" y="333" type="line"/>
      <point x="730" y="333" type="line"/>
      <point x="730" y="247" type="line"/>
    </contour>
    <contour>
      <point x="130" y="673" type="line"/>
      <point x="130" y="773" type="line"/>
      <point x="379" y="773" type="line"/>
      <point x="379" y="1023" type="line"/>
      <point x="481" y="1023" type="line"/>
      <point x="481" y="773" type="line"/>
      <point x="730" y="773" type="line"/>
      <point x="730" y="673" type="line"/>
      <point x="481" y="673" type="line"/>
      <point x="481" y="423" type="line"/>
      <point x="379" y="423" type="line"/>
      <point x="379" y="673" type="line"/>
    </contour>
  </outline>
</glyph>
<glyph name="periodcentered" format="1">
  <advance width="434"/>
  <unicode hex="00B7"/>
  <outline>
    <contour>
      <point x="135" y="758" type="line"/>
      <point x="299" y="758" type="line"/>
      <point x="299" y="543" type="line"/>
      <point x="135" y="543" type="line"/>
    </contour>
  </outline>
</glyph>
<glyph name="cedilla" format="1">
  <advance width="435"/>
  <unicode hex="00B8"/>
  <outline>
    <contour>
      <point x="150" y="-300" type="curve"/>
      <point x="150" y="-380" type="line"/>
      <point x="171.169" y="-384.019"/>
      <point x="190.659" y="-385.898"/>
      <point x="208.543" y="-385.898" type="curve" smooth="yes"/>
      <point x="324.925" y="-385.898"/>
      <point x="373.257" y="-306.331"/>
      <point x="373.257" y="-219.363" type="curve" smooth="yes"/>
      <point x="373.257" y="-120.208"/>
      <point x="310.429" y="-11.4323"/>
      <point x="214" y="0" type="curve"/>
      <point x="209" y="-46" type="line"/>
      <point x="251.603" y="-70.2789"/>
      <point x="278.047" y="-132.331"/>
      <point x="278.047" y="-189.377" type="curve" smooth="yes"/>
      <point x="278.047" y="-248.917"/>
      <point x="249.241" y="-303.004"/>
      <point x="179.934" y="-303.004" type="curve" smooth="yes"/>
      <point x="170.686" y="-303.004"/>
      <point x="160.717" y="-302.041"/>
    </contour>
  </outline>
</glyph>
<glyph name="onehalf" format="1">
  <advance width="1548"/>
  <unicode hex="00BD"/>
  <outline>
    <contour>
      <point x="195" y="-14" type="line"/>
      <point x="1430" y="1415" type="line"/>
      <point x="1354" y="1481" type="line"/>
      <point x="118" y="52" type="line"/>
    </contour>
    <contour>
      <point x="302" y="1365" type="line"/>
      <point x="302" y="769" type="line"/>
      <point x="415" y="769" type="line"/>
      <point x="415" y="1464" type="line"/>
      <point x="312" y="1464" type="line"/>
      <point x="164" y="1397" type="line"/>
      <point x="185" y="1307" type="line"/>
    </contour>
    <contour>
      <point x="1441" y="0" type="line"/>
      <point x="1441" y="79" type="line"/>
      <point x="1098" y="79" type="line"/>
      <point x="1311" y="265"/>
      <point x="1454" y="339"/>
      <point x="1440" y="495" type="curve" smooth="yes"/>
      <point x="1427" y="638"/>
      <point x="1317" y="712"/>
      <point x="1200" y="712" type="curve" smooth="yes"/>
      <point x="1094" y="712"/>
      <point x="988" y="658"/>
      <point x="945" y="537" type="curve"/>
      <point x="1035" y="492" type="line"/>
      <point x="1053" y="574"/>
      <point x="1127" y="619"/>
      <point x="1198" y="619" type="curve" smooth="yes"/>
      <point x="1266" y="619"/>
      <point x="1327" y="576"/>
      <point x="1335" y="486" type="curve" smooth="yes"/>
      <point x="1346" y="364"/>
      <point x="1217" y="295"/>
      <point x="965" y="82" type="curve"/>
      <point x="966" y="0" type="line"/>
    </contour>
  </outline>
</glyph>
<glyph name="germandbls" format="1">
  <advance width="1199"/>
  <unicode hex="00DF"/>
  <outline>
    <contour>
      <point x="276" y="0" type="line"/>
      <point x="276" y="1140" type="line" smooth="yes"/>
      <point x="276" y="1303"/>
      <point x="420" y="1388"/>
      <point x="565" y="1388" type="curve" smooth="yes"/>
      <point x="721" y="1388"/>
      <point x="804" y="1322"/>
      <point x="804" y="1209" type="curve" smooth="yes"/>
      <point x="804" y="996"/>
      <point x="445" y="1001"/>
      <point x="441" y="816" type="curve" smooth="yes"/>
      <point x="436" y="586"/>
      <point x="984" y="572"/>
      <point x="975" y="334" type="curve" smooth="yes"/>
      <point x="970" y="206"/>
      <point x="895" y="117"/>
      <point x="441" y="117" type="curve"/>
      <point x="441" y="0" type="line"/>
      <point x="481" y="0" type="line" smooth="yes"/>
      <point x="1022" y="0"/>
      <point x="1121" y="111"/>
      <point x="1121" y="336" type="curve" smooth="yes"/>
      <point x="1121" y="654"/>
      <point x="580" y="685"/>
      <point x="585" y="823" type="curve" smooth="yes"/>
      <point x="587" y="890"/>
      <point x="940" y="949"/>
      <point x="940" y="1203" type="curve" smooth="yes"/>
      <point x="940" y="1360"/>
      <point x="829" y="1492"/>
      <point x="568" y="1492" type="curve" smooth="yes"/>
      <point x="350" y="1492"/>
      <point x="130" y="1373"/>
      <point x="130" y="1151" type="curve" smooth="yes"/>
      <point x="130" y="0" type="line"/>
    </contour>
  </outline>
</glyph>
<glyph name="ae" format="1">
  <advance width="1667"/>
  <unicode hex="00E6"/>
  <outline>
    <contour>
      <point x="133" y="927" type="line"/>
      <point x="247" y="1006"/>
      <point x="366" y="1044"/>
      <point x="518" y="1044" type="curve" smooth="yes"/>
      <point x="722" y="1044"/>
      <point x="836" y="955"/>
      <point x="864" y="733" type="curve"/>
      <point x="824" y="734" type="line"/>
      <point x="869" y="943"/>
      <point x="1024" y="1044"/>
      <point x="1193" y="1044" type="curve" smooth="yes"/>
      <point x="1478" y="1044"/>
      <point x="1587" y="844"/>
      <point x="1587" y="572" type="curve" smooth="yes"/>
      <point x="1587" y="563"/>
      <point x="1586" y="523"/>
      <point x="1584" y="506" type="curve"/>
      <point x="839" y="493" type="line"/>
      <point x="900" y="524" type="line"/>
      <point x="900" y="264"/>
      <point x="981" y="78"/>
      <point x="1198" y="78" type="curve" smooth="yes"/>
      <point x="1374" y="78"/>
      <point x="1444" y="204"/>
      <point x="1474" y="276" type="curve"/>
      <point x="1570" y="234" type="line"/>
      <point x="1515" y="83"/>
      <point x="1379" y="-23"/>
      <point x="1195" y="-24" type="curve" smooth="yes"/>
      <point x="1029" y="-24"/>
      <point x="828" y="72"/>
      <point x="813" y="320" type="curve"/>
      <point x="851" y="320" type="line"/>
      <point x="826" y="78"/>
      <point x="671" y="-24"/>
      <point x="429" y="-24" type="curve" smooth="yes"/>
      <point x="241" y="-24"/>
      <point x="92" y="58"/>
      <point x="84" y="251" type="curve" smooth="yes"/>
      <point x="73" y="503"/>
      <point x="254" y="576"/>
      <point x="563" y="581" type="curve" smooth="yes"/>
      <point x="801" y="585" type="line"/>
      <point x="760" y="546" type="line"/>
      <point x="760" y="832"/>
      <point x="732" y="934"/>
      <point x="530" y="942" type="curve" smooth="yes"/>
      <point x="370" y="948"/>
      <point x="274" y="896"/>
      <point x="187" y="840" type="curve"/>
    </contour>
    <contour>
      <point x="760" y="414" type="curve" smooth="yes"/>
      <point x="760" y="527" type="line"/>
      <point x="800" y="486" type="line"/>
      <point x="570" y="482" type="line"/>
      <point x="351" y="477"/>
      <point x="215" y="436"/>
      <point x="226" y="256" type="curve" smooth="yes"/>
      <point x="233" y="134"/>
      <point x="313" y="78"/>
      <point x="440" y="78" type="curve" smooth="yes"/>
      <point x="642" y="78"/>
      <point x="760" y="154"/>
    </contour>
    <contour>
      <point x="1465" y="550" type="line"/>
      <point x="1465" y="816"/>
      <point x="1387" y="942"/>
      <point x="1196" y="942" type="curve" smooth="yes"/>
      <point x="1012" y="942"/>
      <point x="900" y="790"/>
      <point x="901" y="562" type="curve"/>
      <point x="839" y="589" type="line"/>
      <point x="1504" y="601" type="line"/>
    </contour>
  </outline>
</glyph>
<glyph name="dcroat" format="1">
  <advance width="1137"/>
  <unicode hex="0111"/>
  <outline>
    <contour>
      <point x="574" y="1201" type="line"/>
      <point x="1094" y="1201" type="line"/>
      <point x="1094" y="1287" type="line"/>
      <point x="574" y="1287" type="line"/>
    </contour>
    <component base="d"/>
  </outline>
</glyph>
<glyph name="kgreenlandic" format="1">
  <advance width="1010"/>
  <unicode hex="0138"/>
  <outline>
    <contour>
      <point x="550" y="653" type="line"/>
      <point x="464" y="564" type="line"/>
      <point x="858" y="0" type="line"/>
      <point x="1018" y="0" type="line"/>
    </contour>
    <contour>
      <point x="797" y="1023" type="line"/>
      <point x="203" y="372" type="line"/>
      <point x="203" y="231" type="line"/>
      <point x="507" y="544" type="line"/>
      <point x="570" y="587" type="line"/>
      <point x="959" y="1023" type="line"/>
    </contour>
    <component base="lc_main_stem"/>
  </outline>
</glyph>
<glyph name="OE" format="1">
  <advance width="2171"/>
  <unicode hex="0152"/>
  <outline>
    <contour>
      <point x="710" y="1374" type="curve" smooth="yes"/>
      <point x="1047" y="1377"/>
      <point x="1164" y="1215"/>
      <point x="1164" y="800" type="curve" smooth="yes"/>
      <point x="1164" y="694" type="line" smooth="yes"/>
      <point x="1164" y="262"/>
      <point x="1043" y="93"/>
      <point x="708" y="93" type="curve" smooth="yes"/>
      <point x="370" y="93"/>
      <point x="265" y="302"/>
      <point x="265" y="741" type="curve" smooth="yes"/>
      <point x="265" y="1130"/>
      <point x="358" y="1371"/>
    </contour>
    <contour>
      <point x="2121" y="113" type="line"/>
      <point x="1310" y="113" type="line"/>
      <point x="1310" y="723" type="line"/>
      <point x="1996" y="723" type="line"/>
      <point x="1996" y="838" type="line"/>
      <point x="1310" y="838" type="line"/>
      <point x="1310" y="1352" type="line"/>
      <point x="2110" y="1352" type="line"/>
      <point x="2110" y="1464" type="line"/>
      <point x="1163" y="1464" type="line"/>
      <point x="1163" y="1362" type="line" smooth="yes"/>
      <point x="1164" y="1228" type="line"/>
      <point x="1100" y="1397"/>
      <point x="956" y="1491"/>
      <point x="711" y="1491" type="curve" smooth="yes"/>
      <point x="332" y="1491"/>
      <point x="112" y="1282"/>
      <point x="112" y="740" type="curve" smooth="yes"/>
      <point x="112" y="186"/>
      <point x="324" y="-25"/>
      <point x="707" y="-25" type="curve" smooth="yes"/>
      <point x="956" y="-25"/>
      <point x="1116" y="80"/>
      <point x="1164" y="260" type="curve"/>
      <point x="1164.44" y="33.1111" type="line" smooth="yes"/>
      <point x="1164.44" y="13.4444"/>
      <point x="1164.33" y="0.333333"/>
      <point x="1164" y="0" type="curve" smooth="yes"/>
      <point x="2121" y="0" type="line"/>
    </contour>
  </outline>
</glyph>
<glyph name="Tbar" format="1">
  <advance width="1119"/>
  <unicode hex="0166"/>
  <outline>
    <contour>
      <point x="237" y="799" type="line"/>
      <point x="888" y="799" type="line"/>
      <point x="888" y="701" type="line"/>
      <point x="237" y="701" type="line"/>
    </contour>
    <component base="T"/>
  </outline>
</glyph>
<glyph name="tbar" format="1">
  <advance width="656"/>
  <unicode hex="0167"/>
  <outline>
    <contour>
      <point x="11" y="632" type="line"/>
      <point x="573" y="632" type="line"/>
      <point x="573" y="534" type="line"/>
      <point x="11" y="534" type="line"/>
    </contour>
    <component base="t"/>
  </outline>
</glyph>
<glyph name="uni01C7" format="1">
  <advance width="1974"/>
  <unicode hex="01C7"/>
  <outline>
    <contour>
      <point x="1041" y="334" type="curve"/>
      <point x="1171" y="369" type="line"/>
      <point x="1209" y="198"/>
      <point x="1275" y="93"/>
      <point x="1437" y="93" type="curve"/>
      <point x="1677" y="95"/>
      <point x="1693" y="306"/>
      <point x="1693" y="541" type="curve" smooth="yes"/>
      <point x="1693" y="1464" type="line"/>
      <point x="1838" y="1464" type="line"/>
      <point x="1838" y="544" type="line" smooth="yes"/>
      <point x="1838" y="166"/>
      <point x="1738" y="-25"/>
      <point x="1425" y="-25" type="curve" smooth="yes"/>
      <point x="1199" y="-25"/>
      <point x="1084" y="117"/>
    </contour>
    <contour>
      <point x="1041" y="0" type="line"/>
      <point x="148" y="0" type="line"/>
      <point x="148" y="1464" type="line"/>
      <point x="294" y="1464" type="line"/>
      <point x="294" y="113" type="line"/>
      <point x="1041" y="113" type="line"/>
    </contour>
  </outline>
</glyph>
<glyph name="breve" format="1">
  <advance width="805"/>
  <unicode hex="02D8"/>
  <outline>
    <contour>
      <point x="402" y="1183" type="curve" smooth="yes"/>
      <point x="255" y="1183"/>
      <point x="130" y="1258"/>
      <point x="126" y="1438" type="curve"/>
      <point x="242" y="1438" type="line"/>
      <point x="242" y="1331"/>
      <point x="303" y="1286"/>
      <point x="402" y="1286" type="curve" smooth="yes"/>
      <point x="502" y="1286"/>
      <point x="562" y="1331"/>
      <point x="562" y="1438" type="curve"/>
      <point x="678" y="1438" type="line"/>
      <point x="674" y="1258"/>
      <point x="549" y="1183"/>
    </contour>
  </outline>
</glyph>
<glyph name="tilde" format="1">
  <advance width="798"/>
  <unicode hex="02DC"/>
  <outline>
    <contour>
      <point x="260" y="1288" type="curve"/>
      <point x="316" y="1284"/>
      <point x="451" y="1208"/>
      <point x="545" y="1202" type="curve" smooth="yes"/>
      <point x="612" y="1198"/>
      <point x="686" y="1219"/>
      <point x="673" y="1395" type="curve"/>
      <point x="576" y="1395" type="line"/>
      <point x="576" y="1336"/>
      <point x="572" y="1294"/>
      <point x="535" y="1299" type="curve" smooth="yes"/>
      <point x="485" y="1306"/>
      <point x="331" y="1386"/>
      <point x="253" y="1391" type="curve" smooth="yes"/>
      <point x="203" y="1394"/>
      <point x="103.5" y="1376.25"/>
      <point x="127" y="1200" type="curve"/>
      <point x="223" y="1200" type="line"/>
      <point x="223" y="1260"/>
      <point x="236" y="1288"/>
    </contour>
  </outline>
</glyph>
<glyph name="uni0302" format="1">
  <advance width="838"/>
  <unicode hex="0302"/>
  <outline>
    <contour>
      <point x="337" y="1492" type="line"/>
      <point x="512" y="1492" type="line"/>
      <point x="697" y="1172" type="line"/>
      <point x="600" y="1172" type="line"/>
      <point x="424" y="1425" type="line"/>
      <point x="249" y="1172" type="line"/>
      <point x="152" y="1172" type="line"/>
    </contour>
  </outline>
</glyph>
<glyph name="uni0308" format="1">
  <advance width="860"/>
  <unicode hex="0308"/>
  <outline>
    <contour>
      <point x="680" y="1365" type="line"/>
      <point x="680" y="1191" type="line"/>
      <point x="514" y="1191" type="line"/>
      <point x="514" y="1365" type="line"/>
    </contour>
    <contour>
      <point x="135" y="1365" type="line"/>
      <point x="301" y="1365" type="line"/>
      <point x="301" y="1191" type="line"/>
      <point x="135" y="1191" type="line"/>
    </contour>
  </outline>
</glyph>
<glyph name="uni030C" format="1">
  <advance width="838"/>
  <unicode hex="030C"/>
  <outline>
    <contour>
      <point x="337" y="1172" type="line"/>
      <point x="152" y="1492" type="line"/>
      <point x="249" y="1492" type="line"/>
      <point x="424" y="1239" type="line"/>
      <point x="600" y="1492" type="line"/>
      <point x="697" y="1492" type="line"/>
      <point x="512" y="1172" type="line"/>
    </contour>
  </outline>
</glyph>
<glyph name="uni030F" format="1">
  <advance width="745"/>
  <unicode hex="030F"/>
  <outline>
    <contour>
      <point x="580" y="1492" type="line"/>
      <point x="685" y="1172" type="line"/>
      <point x="619" y="1172" type="line"/>
      <point x="391" y="1492" type="line"/>
    </contour>
    <contour>
      <point x="282" y="1492" type="line"/>
      <point x="417" y="1172" type="line"/>
      <point x="344" y="1172" type="line"/>
      <point x="87" y="1492" type="line"/>
    </contour>
  </outline>
</glyph>
<glyph name="uni0311" format="1">
  <advance width="805"/>
  <unicode hex="0311"/>
  <outline>
    <contour>
      <point x="402" y="1437" type="curve" smooth="yes"/>
      <point x="549" y="1437"/>
      <point x="674" y="1362"/>
      <point x="678" y="1182" type="curve"/>
      <point x="562" y="1182" type="line"/>
      <point x="562" y="1289"/>
      <point x="501" y="1334"/>
      <point x="402" y="1334" type="curve" smooth="yes"/>
      <point x="302" y="1334"/>
      <point x="242" y="1289"/>
      <point x="242" y="1182" type="curve"/>
      <point x="126" y="1182" type="line"/>
      <point x="130" y="1362"/>
      <point x="255" y="1437"/>
    </contour>
  </outline>
</glyph>
<glyph name="Euro" format="1">
  <advance width="1275"/>
  <unicode hex="20AC"/>
  <outline>
    <contour>
      <point x="691" y="796" type="line"/>
      <point x="691" y="892" type="line"/>
      <point x="-43" y="892" type="line"/>
      <point x="-43" y="796" type="line"/>
    </contour>
    <contour>
      <point x="691" y="553" type="line"/>
      <point x="691" y="649" type="line"/>
      <point x="-43" y="649" type="line"/>
      <point x="-43" y="553" type="line"/>
    </contour>
    <component base="C"/>
  </outline>
</glyph>
<glyph name="lc_ascender_stem_2" format="1">
  <advance width="1078"/>
  <outline>
    <contour>
      <point x="128" y="0" type="line"/>
      <point x="238" y="0" type="line"/>
      <point x="270" y="758" type="line"/>
      <point x="270" y="1474" type="line"/>
      <point x="128" y="1474" type="line"/>
    </contour>
  </outline>
</glyph>
<glyph name="lc_descender_stem" format="1">
  <advance width="1057"/>
  <outline>
    <contour>
      <point x="269" y="-350" type="line"/>
      <point x="268" y="798" type="line"/>
      <point x="249" y="1023" type="line"/>
      <point x="127" y="1023" type="line"/>
      <point x="127" y="-350" type="line"/>
    </contour>
  </outline>
</glyph>
<glyph name="lc_main_stem" format="1">
  <advance width="1086"/>
  <outline>
    <contour>
      <point x="127" y="0" type="line"/>
      <point x="270" y="0" type="line"/>
      <point x="269" y="1023" type="line"/>
      <point x="127" y="1023" type="line"/>
    </contour>
  </outline>
</glyph>
<glyph name="uc_main_stem" format="1">
  <advance width="1457"/>
  <outline>
    <contour>
      <point x="294" y="0" type="line"/>
      <point x="148" y="0" type="line"/>
      <point x="148" y="1464" type="line"/>
      <point x="294" y="1464" type="line"/>
    </contour>
  </outline>
</glyph>
